<?xml version="1.0" standalone="no"?><!DOCTYPE svg PUBLIC "-//W3C//DTD SVG 1.1//EN" "http://www.w3.org/Graphics/SVG/1.1/DTD/svg11.dtd"><svg t="1538913196412" class="icon" style="" viewBox="0 0 1024 1024" version="1.1" xmlns="http://www.w3.org/2000/svg" p-id="6663" xmlns:xlink="http://www.w3.org/1999/xlink" width="200" height="200"><defs><style type="text/css"></style></defs><path d="M154 862c-35.8 0-65-29.2-65-65V227c0-35.8 29.2-65 65-65h716c35.8 0 65 29.2 65 65v570c0 35.8-29.2 65-65 65H154z" fill="#E5E5E5" p-id="6664"></path><path d="M870 187c10.6 0 20.6 4.2 28.2 11.8 7.6 7.6 11.8 17.6 11.8 28.2v570c0 10.6-4.2 20.6-11.8 28.2-7.6 7.6-17.6 11.8-28.2 11.8H154c-10.6 0-20.6-4.2-28.2-11.8-7.6-7.6-11.8-17.6-11.8-28.2V227c0-10.6 4.2-20.6 11.8-28.2 7.6-7.6 17.6-11.8 28.2-11.8h716m0-50H154c-49.5 0-90 40.5-90 90v570c0 49.5 40.5 90 90 90h716c49.5 0 90-40.5 90-90V227c0-49.5-40.5-90-90-90z" fill="#3A3644" p-id="6665"></path><path d="M154 837c-7.4 0-14.3-2-20.2-5.5h575.7c77.2 0 140-62.8 140-140V187H870c22.1 0 40 17.9 40 40v570c0 22.1-17.9 40-40 40H154z" fill="#B2C5E4" p-id="6666"></path><path d="M849.4 456.6l-316.8 155-419.8-233.8 736.6-39.7z" fill="#C4C4C5" p-id="6667"></path><path d="M529 562.4c-7.7 0-15.3-1.9-22.1-5.5L89 337V227c0-35.8 29.2-65 65-65h716c35.8 0 65 29.2 65 65v127.9L551.1 557c-6.8 3.6-14.4 5.4-22.1 5.4z" fill="#FFFFFF" p-id="6668"></path><path d="M870 187c10.6 0 20.6 4.2 28.2 11.8 7.6 7.6 11.8 17.6 11.8 28.2v112.8l-370.5 195c-3.2 1.7-6.8 2.6-10.5 2.6-3.6 0-7.2-0.9-10.5-2.6L114 321.9V227c0-10.6 4.2-20.6 11.8-28.2 7.6-7.6 17.6-11.8 28.2-11.8h716m0-50H154c-49.5 0-90 40.5-90 90v125.1l431.3 227c10.6 5.6 22.2 8.3 33.7 8.3 11.6 0 23.2-2.8 33.7-8.3L960 370V227c0-49.5-40.5-90-90-90z" fill="#3A3644" p-id="6669"></path><path d="M741 719m-60 0a60 60 0 1 0 120 0 60 60 0 1 0-120 0Z" fill="#F46070" p-id="6670"></path><path d="M741 674c24.8 0 45 20.2 45 45s-20.2 45-45 45-45-20.2-45-45 20.2-45 45-45m0-30c-41.4 0-75 33.6-75 75s33.6 75 75 75 75-33.6 75-75-33.6-75-75-75z" fill="#3A3644" p-id="6671"></path><path d="M540 660.6h100v40H540zM460 730.6h180v40H460z" fill="#8E8C93" p-id="6672"></path><path d="M114 235.1V227c0-22.1 17.9-40 40-40h716c22.1 0 40 17.9 40 40v8.1H114z" fill="#E5E5E5" p-id="6673"></path><path d="M154 927c-35.8 0-65-29.2-65-65V162c0-35.8 29.2-65 65-65h716c35.8 0 65 29.2 65 65v700c0 35.8-29.2 65-65 65H154z" fill="#CDA4F9" p-id="6674"></path><path d="M870 122c10.6 0 20.6 4.2 28.2 11.8 7.6 7.6 11.8 17.6 11.8 28.2v700c0 10.6-4.2 20.6-11.8 28.2-7.6 7.6-17.6 11.8-28.2 11.8H154c-10.6 0-20.6-4.2-28.2-11.8-7.6-7.6-11.8-17.6-11.8-28.2V162c0-10.6 4.2-20.6 11.8-28.2 7.6-7.6 17.6-11.8 28.2-11.8h716m0-50H154c-49.5 0-90 40.5-90 90v700c0 49.5 40.5 90 90 90h716c49.5 0 90-40.5 90-90V162c0-49.5-40.5-90-90-90z" fill="#3A3644" p-id="6675"></path><path d="M574 688h-78.6l-31.3-81.3h-143L291.6 688h-76.7l139.4-357.9h76.4L574 688zM441 546.4l-49.3-132.8-48.3 132.8H441zM737 605.5l68.4 11.5c-8.8 25.1-22.7 44.2-41.6 57.3-19 13.1-42.7 19.7-71.2 19.7-45.1 0-78.5-14.7-100.1-44.2-17.1-23.6-25.6-53.4-25.6-89.4 0-43 11.2-76.6 33.7-101 22.5-24.3 50.9-36.5 85.2-36.5 38.6 0 69 12.7 91.3 38.2 22.3 25.5 33 64.5 32 117.1H637.2c0.5 20.3 6 36.2 16.6 47.5 10.6 11.3 23.8 17 39.6 17 10.7 0 19.8-2.9 27.1-8.8s12.8-15.4 16.5-28.4z m3.9-69.3c-0.5-19.9-5.6-35-15.4-45.3-9.8-10.3-21.6-15.5-35.6-15.5-15 0-27.3 5.5-37.1 16.4-9.8 10.9-14.6 25.7-14.4 44.4h102.5z" fill="#3A3644" p-id="6676"></path></svg>