<?xml version="1.0" standalone="no"?><!DOCTYPE svg PUBLIC "-//W3C//DTD SVG 1.1//EN" "http://www.w3.org/Graphics/SVG/1.1/DTD/svg11.dtd"><svg t="1537595824396" class="icon" style="" viewBox="0 0 1024 1024" version="1.1" xmlns="http://www.w3.org/2000/svg" p-id="5280" xmlns:xlink="http://www.w3.org/1999/xlink" width="200" height="200"><defs><style type="text/css"></style></defs><path d="M207.872 638.976q0 39.936-23.04 59.392t-55.808 19.456q-35.84 0-57.856-18.944t-22.016-64l0-393.216q-1.024-32.768 22.016-52.224t57.856-19.456q36.864 0 57.856 22.016t20.992 51.712l0 395.264zM265.216 711.68l-1.024-537.6 129.024 0q16.384 0 28.16-8.704t20.48-22.528 14.848-29.696 12.288-30.208q10.24-24.576 25.6-42.496t47.104-17.92l107.52 0q18.432 0 30.72 5.12t20.992 14.336 14.848 20.992 11.264 24.064q6.144 14.336 11.776 29.184t12.288 27.136 15.36 20.48 20.992 8.192l86.016 0q52.224 1.024 78.848 29.696t26.624 79.872l0 326.656q0 53.248-25.6 78.336t-74.752 25.088l-613.376 0zM598.016 265.216q-39.936 0-74.24 14.848t-59.904 40.448-40.448 60.416-14.848 73.728q0 39.936 14.848 74.24t40.448 59.904 59.904 40.448 74.24 14.848q38.912 0 73.728-14.848t60.416-40.448 40.448-59.904 14.848-74.24q0-38.912-14.848-73.728t-40.448-60.416-60.416-40.448-73.728-14.848zM714.752 453.632q0 24.576-9.216 45.568t-25.088 36.864-36.864 25.088-45.568 9.216-46.08-9.216-37.376-25.088-25.088-36.864-9.216-45.568 9.216-45.568 25.088-36.864 37.376-25.088 46.08-9.216 45.568 9.216 36.864 25.088 25.088 36.864 9.216 45.568z" p-id="5281" fill="#d81e06"></path></svg>