<?xml version="1.0" standalone="no"?><!DOCTYPE svg PUBLIC "-//W3C//DTD SVG 1.1//EN" "http://www.w3.org/Graphics/SVG/1.1/DTD/svg11.dtd"><svg t="1537629423141" class="icon" style="" viewBox="0 0 1024 1024" version="1.1" xmlns="http://www.w3.org/2000/svg" p-id="11777" xmlns:xlink="http://www.w3.org/1999/xlink" width="200" height="200"><defs><style type="text/css"></style></defs><path d="M81.92 163.84v614.4h122.88v204.8l204.8-204.8h573.44V163.84z m180.224 360.448a90.112 90.112 0 1 1 90.112-90.112 90.112 90.112 0 0 1-90.112 90.112z m270.336 0a90.112 90.112 0 1 1 90.112-90.112 90.112 90.112 0 0 1-90.112 90.112z m270.336 0a90.112 90.112 0 1 1 90.112-90.112 90.112 90.112 0 0 1-90.112 90.112z" fill="#0000FF" p-id="11778"></path><path d="M40.96 122.88v614.4h122.88v204.8l204.8-204.8h573.44V122.88z m180.224 360.448a90.112 90.112 0 1 1 90.112-90.112 90.112 90.112 0 0 1-90.112 90.112z m270.336 0a90.112 90.112 0 1 1 90.112-90.112 90.112 90.112 0 0 1-90.112 90.112z m270.336 0a90.112 90.112 0 1 1 90.112-90.112 90.112 90.112 0 0 1-90.112 90.112z" fill="#FF0000" p-id="11779"></path></svg>