<?xml version="1.0" standalone="no"?><!DOCTYPE svg PUBLIC "-//W3C//DTD SVG 1.1//EN" "http://www.w3.org/Graphics/SVG/1.1/DTD/svg11.dtd"><svg t="1537629262912" class="icon" style="" viewBox="0 0 1024 1024" version="1.1" xmlns="http://www.w3.org/2000/svg" p-id="9055" xmlns:xlink="http://www.w3.org/1999/xlink" width="200" height="200"><defs><style type="text/css"></style></defs><path d="M515.2 612.8H656v60.8h-140.8z" fill="#FC6884" p-id="9056"></path><path d="M742.4 758.4h-480c-9.6 0-16-6.4-16-16v-480c0-9.6 6.4-16 16-16h480c9.6 0 16 6.4 16 16v480c0 9.6-6.4 16-16 16z m-464-32h448v-448h-448v448z" fill="#381FCD" p-id="9057"></path><path d="M787.2 867.2H219.2c-46.4 0-81.6-35.2-81.6-81.6V217.6c0-46.4 35.2-81.6 81.6-81.6h568c46.4 0 81.6 35.2 81.6 81.6v568c-1.6 44.8-38.4 81.6-81.6 81.6zM219.2 168c-27.2 0-49.6 22.4-49.6 49.6v568c0 27.2 22.4 49.6 49.6 49.6h568c25.6 0 48-22.4 49.6-49.6V217.6c0-27.2-22.4-49.6-49.6-49.6H219.2z" fill="#381FCD" p-id="9058"></path><path d="M284.8 168c-9.6 0-16-6.4-16-16V22.4c0-9.6 6.4-16 16-16s16 6.4 16 16v129.6c0 9.6-6.4 16-16 16zM502.4 168c-9.6 0-16-6.4-16-16V22.4c0-9.6 6.4-16 16-16s16 6.4 16 16v129.6c0 9.6-6.4 16-16 16zM721.6 168c-9.6 0-16-6.4-16-16V22.4c0-9.6 6.4-16 16-16s16 6.4 16 16v129.6c0 9.6-6.4 16-16 16zM284.8 998.4c-9.6 0-16-6.4-16-16v-131.2c0-9.6 6.4-16 16-16s16 6.4 16 16v131.2c0 9.6-6.4 16-16 16zM502.4 998.4c-9.6 0-16-6.4-16-16v-131.2c0-9.6 6.4-16 16-16s16 6.4 16 16v131.2c0 9.6-6.4 16-16 16zM721.6 998.4c-9.6 0-16-6.4-16-16v-131.2c0-9.6 6.4-16 16-16s16 6.4 16 16v131.2c0 9.6-6.4 16-16 16zM982.4 299.2h-131.2c-9.6 0-16-6.4-16-16s6.4-16 16-16h131.2c9.6 0 16 6.4 16 16s-6.4 16-16 16zM982.4 518.4h-131.2c-9.6 0-16-6.4-16-16s6.4-16 16-16h131.2c9.6 0 16 6.4 16 16s-6.4 16-16 16zM982.4 736h-131.2c-9.6 0-16-6.4-16-16s6.4-16 16-16h131.2c9.6 0 16 6.4 16 16s-6.4 16-16 16zM153.6 299.2H22.4c-9.6 0-16-6.4-16-16s6.4-16 16-16h131.2c9.6 0 16 6.4 16 16s-6.4 16-16 16zM153.6 518.4H22.4c-9.6 0-16-6.4-16-16s6.4-16 16-16h131.2c9.6 0 16 6.4 16 16s-6.4 16-16 16zM153.6 736H22.4c-9.6 0-16-6.4-16-16s6.4-16 16-16h131.2c9.6 0 16 6.4 16 16s-6.4 16-16 16zM350.4 452.8c-9.6 0-16-6.4-16-16v-88c0-9.6 6.4-16 16-16s16 6.4 16 16v88c0 9.6-6.4 16-16 16zM436.8 452.8c-9.6 0-16-6.4-16-16v-88c0-9.6 6.4-16 16-16s16 6.4 16 16v88c0 9.6-6.4 16-16 16zM524.8 452.8c-9.6 0-16-6.4-16-16v-88c0-9.6 6.4-16 16-16s16 6.4 16 16v88c0 9.6-6.4 16-16 16zM656 670.4H481.6c-9.6 0-16-6.4-16-16v-88c0-9.6 6.4-16 16-16H656c9.6 0 16 6.4 16 16v88c0 9.6-6.4 16-16 16z m-158.4-32H640v-56h-142.4v56z" fill="#381FCD" p-id="9059"></path></svg>