<?xml version="1.0" standalone="no"?><!DOCTYPE svg PUBLIC "-//W3C//DTD SVG 1.1//EN" "http://www.w3.org/Graphics/SVG/1.1/DTD/svg11.dtd"><svg t="1537700090785" class="icon" style="" viewBox="0 0 1187 1024" version="1.1" xmlns="http://www.w3.org/2000/svg" p-id="5822" xmlns:xlink="http://www.w3.org/1999/xlink" width="231.8359375" height="200"><defs><style type="text/css"></style></defs><path d="M298.367107 419.586513L98.887404 492.90162l154.270967 109.12708 123.025135-121.819705-77.816399-60.619939z" fill="#4DB6AC" p-id="5823"></path><path d="M642.888858 90.847257c-16.686568 2.268448-12.162389 1.288082-36.112058 20.459262-22.898097 18.333227-88.913228 127.596363-124.196235 164.35564-31.39206 32.706844-43.817659 15.511655-76.422779 42.80169-32.653439 27.330725-82.997971 81.969286-82.997971 81.969286l81.351312 60.16981L533.480766 283.243148c30.451112-41.874729 30.128138-47.385632 46.721882-91.322817 8.117584-21.498119 22.582752-38.019385 35.293179-58.248496 15.879133-25.270811 38.383049-44.319922 27.393031-42.825849z" fill="#00897B" p-id="5824"></path><path d="M640.362286 88.749198c-39.758867-0.240323-78.922649 174.514064-146.940474 308.594067-69.354225 136.715929-206.290133 224.835709-206.290132 224.835709 23.086286 10.481398 44.098672 6.243317 68.963858 29.746672 17.006999 20.553356 66.23511 122.038412 95.587601 185.795268 0 0 24.1137-13.093164 54.669079-35.215614 30.555379-22.121179 67.549894-53.272915 93.311524-89.39006 34.183115-47.927313 60.903495-77.619309 83.544738-95.710941 22.641243-18.094176 41.20335-24.586717 59.073732-26.117665 63.880196-5.474029 158.41241 109.088933 158.41241 109.088933S702.745866 89.123034 640.362286 88.749198z" fill="#FFB74D" p-id="5825"></path></svg>