<?xml version="1.0" standalone="no"?><!DOCTYPE svg PUBLIC "-//W3C//DTD SVG 1.1//EN" "http://www.w3.org/Graphics/SVG/1.1/DTD/svg11.dtd"><svg t="1537720778355" class="icon" style="" viewBox="0 0 1024 1024" version="1.1" xmlns="http://www.w3.org/2000/svg" p-id="12397" xmlns:xlink="http://www.w3.org/1999/xlink" width="200" height="200"><defs><style type="text/css"></style></defs><path d="M0 0h1024v1024H0z" fill="#261300" p-id="12398"></path><path d="M614.4 431.981714v-13.458285a237.275429 237.275429 0 0 0-1.901714-28.525715 8.630857 8.630857 0 0 1 0-3.949714 5.266286 5.266286 0 0 1 2.486857-2.048A560.713143 560.713143 0 0 1 677.302857 365.714286a381.659429 381.659429 0 0 1 94.061714-10.971429 8.630857 8.630857 0 0 1 3.949715 0 4.827429 4.827429 0 0 1 1.024 3.510857v64.073143a3.949714 3.949714 0 0 1-1.024 2.925714 3.657143 3.657143 0 0 1-2.925715 1.024 351.085714 351.085714 0 0 0-45.348571 1.462858 113.371429 113.371429 0 0 0-35.547429 7.606857v275.017143a5.558857 5.558857 0 0 1-1.024 3.949714 6.436571 6.436571 0 0 1-3.949714 1.024h-67.291428a5.705143 5.705143 0 0 1-3.364572-1.024c-1.024 0-1.462857-2.048-1.462857-3.949714v-277.942858m-273.115429 39.643429c5.12 0 10.093714 0.877714 14.628572 0.877714h19.602286a131.657143 131.657143 0 0 0 67.730285-17.408c19.748571-11.556571 29.257143-34.816 29.257143-69.485714a78.994286 78.994286 0 0 0-23.844571-63.049143 97.133714 97.133714 0 0 0-66.852572-21.065143h-40.96v170.130286m-76.068571-232.009143a5.558857 5.558857 0 0 1 1.024-3.510857c0-1.024 1.901714-1.609143 3.949714-1.609143l49.152-1.901714c19.017143 0 39.058286-1.024 59.977143-1.024 58.514286 0 102.4 14.628571 129.316571 43.885714a154.185143 154.185143 0 0 1 40.374858 107.958857c0 56.027429-16.969143 96.548571-51.2 121.563429a202.313143 202.313143 0 0 1-123.318858 37.449143h-32.621714v167.204571a5.705143 5.705143 0 0 1-0.877714 3.949714 7.168 7.168 0 0 1-3.949714 1.024h-66.413715a5.851429 5.851429 0 0 1-3.510857-1.024 4.681143 4.681143 0 0 1-1.462857-3.949714V240.054857M42.861714 43.885714h939.154286v936.228572H42.861714V43.885714M0 0v1024h1024V0H0" fill="#EA77FF" p-id="12399"></path></svg>