<?xml version="1.0" standalone="no"?><!DOCTYPE svg PUBLIC "-//W3C//DTD SVG 1.1//EN" "http://www.w3.org/Graphics/SVG/1.1/DTD/svg11.dtd"><svg t="1537629467592" class="icon" style="" viewBox="0 0 1024 1024" version="1.1" xmlns="http://www.w3.org/2000/svg" p-id="12497" xmlns:xlink="http://www.w3.org/1999/xlink" width="200" height="200"><defs><style type="text/css"></style></defs><path d="M549 449.2l-73.8 42.6 74.3 42.5 73.2-42.5z" fill="#d81e06" p-id="12498"></path><path d="M549 789.6L475.2 747l0.1-255.2 74.2 42.5z" fill="#d81e06" p-id="12499"></path><path d="M622.7 491.8l-0.1 255.3-73.6 42.5 0.5-255.3z" fill="#d81e06" p-id="12500"></path><path d="M622.9 404.6l-147.7 87.2 74.3 42.5 147.1-87.2z" fill="#d81e06" p-id="12501"></path><path d="M549 619.4l-73.8-42.5 0.1-85.1 74.2 42.5z" fill="#d81e06" p-id="12502"></path><path d="M696.6 447.1v85.1L549 619.4l0.5-85.1z" fill="#d81e06" p-id="12503"></path><path d="M549 789.5l-73.8 42.6 74.3 42.5 73.2-42.5z" fill="#d81e06" p-id="12504"></path><path d="M549 959.8l-73.8-42.6 0.1-85.1 74.2 42.5z" fill="#d81e06" p-id="12505"></path><path d="M622.7 832.1l-0.1 85.1-73.6 42.6 0.5-85.2z" fill="#d81e06" p-id="12506"></path><path d="M622.9 148.5L549.2 191l74.2 42.6 73.2-42.6z" fill="#d81e06" p-id="12507"></path><path d="M622.9 488.8l-73.7-42.5V191l74.2 42.6z" fill="#d81e06" p-id="12508"></path><path d="M696.6 191v255.3l-73.7 42.5 0.5-255.2z" fill="#d81e06" p-id="12509"></path><path d="M622.9 64.2L327.4 235.7l74.3 42.6 294.9-171.5z" fill="#d81e06" p-id="12510"></path><path d="M401.1 363.4l-73.7-42.6v-85.1l74.3 42.6z" fill="#d81e06" p-id="12511"></path><path d="M696.6 106.8v85.1L401.1 363.4l0.6-85.1z" fill="#d81e06" p-id="12512"></path></svg>